<svg width="173" height="20" fill="none" xmlns="http://www.w3.org/2000/svg"><path d="M126.996 16.961L93.356.636h-2.331v18.87h2.261V2.967l33.64 16.537h2.332V.636h-2.262v16.325zM135.124.636v2.05h17.597v16.82h2.261V2.685h17.668V.636h-37.526zm-52.58 18.87h3.18L64.24 0 42.756 19.505h3.18l5.725-5.017h25.088l5.795 5.017zm-28.763-7.139L64.24 3.04l10.388 9.329H53.781zM17.385 9.33v2.05h18.94v4.027c-3.25 1.484-8.057 2.615-15.124 2.615-8.48 0-18.586-2.615-18.586-8.056 0-5.442 10.389-7.845 18.162-7.845 6.855 0 12.438 1.484 15.69 3.322l1.272-1.838C34.346 1.767 28.48.071 20.777.071 11.237.07 0 3.392 0 9.965 0 16.537 11.095 20 21.272 20c7.067 0 12.862-1.13 17.527-3.392v-7.28H17.385z" fill="#000"/></svg>