<svg width="124" height="20" fill="none" xmlns="http://www.w3.org/2000/svg"><path d="M77.118 0c-8.843 0-16.002 4.481-16.002 10s7.159 10 16.002 10S93.12 15.584 93.12 10 85.961 0 77.118 0zm0 16.885c-4.92 0-8.908-3.21-8.908-7.157 0-3.948 4.002-7.168 8.922-7.168 4.92 0 8.907 3.207 8.907 7.168 0 3.96-3.987 7.157-8.907 7.157h-.014zm-46.697-8.44h-15.58a.702.702 0 00-.695.716v1.79a.721.721 0 00.694.741h9.151a.495.495 0 01.476.517c.01.08.01.16 0 .24-1.042 2.968-4.249 5.394-8.614 5.394-4.907 0-8.743-3.565-8.743-7.594s3.86-7.568 9.015-7.568c2.574.06 5.04 1.053 6.94 2.796.226.227.53.36.85.372h6.554a.509.509 0 00.503-.517V5.12c0-.334-.361-.577-.58-.782A20.177 20.177 0 0017.888.003h-1.764C7.21.003 0 4.416 0 9.85c0 5.436 6.992 9.85 15.89 9.85 8.897 0 15.973-4.36 15.954-9.87a1.413 1.413 0 00-1.424-1.386h.001z" fill="#000"/><path d="M112.044 9.741a.958.958 0 01.433-.797l11.217-7.327a.524.524 0 00-.267-.972h.196-8.494c-.446.096-.857.31-1.191.621l-4.868 5.417a1.177 1.177 0 01-.893.442 1.206 1.206 0 01-.908-.442l-4.882-5.468c-.318-.32-1.192.079-1.192.079H93.01a.513.513 0 00-.54.49v.043a.518.518 0 00.246.456l10.737 7.045a.842.842 0 01.462.756.847.847 0 01-.462.757l-10.737 7.02a.479.479 0 00-.245.443.52.52 0 00.501.53h-.013 8.349a1.78 1.78 0 001.172-.523l4.806-5.385a1.188 1.188 0 01.893-.434 1.159 1.159 0 01.878.434l4.807 5.385c.312.314.73.5 1.172.523h8.35a.53.53 0 00.51-.306.57.57 0 00.05-.204v-.04a.506.506 0 00-.256-.455l-11.216-7.3a.96.96 0 01-.43-.788zM59.395.65H36.932a1.42 1.42 0 00-1.316.881c-.072.173-.108.36-.108.547v15.96a1.437 1.437 0 001.44 1.444h22.447a.71.71 0 00.713-.713v-1.17a.716.716 0 00-.713-.714H42.693a.712.712 0 01-.712-.715v-4.416a.717.717 0 01.712-.714h14.113a.71.71 0 00.712-.713v-1.17a.717.717 0 00-.712-.714H42.693a.712.712 0 01-.712-.714v-3.82a.705.705 0 01.726-.662h16.675a.68.68 0 00.723-.622V1.372a.718.718 0 00-.436-.667.71.71 0 00-.274-.056z" fill="#000"/></svg>