<svg width="151" height="20" fill="none" xmlns="http://www.w3.org/2000/svg"><path d="M2.364 10c0 4.529 3.254 7.881 7.509 7.881 3.962 0 5.973-2.467 6.563-3.646h2.248C18.092 16.118 15.432 20 9.874 20 4.258 20 0 15.763 0 10 0 4.29 4.315 0 9.875 0c5.557 0 8.277 3.824 8.867 5.765h-2.306a7.34 7.34 0 00-2.766-2.753 7.389 7.389 0 00-3.793-.953C5.62 2.059 2.37 5.41 2.37 10h-.005zm28.204 3.764h-8.159l-2.248 5.825h-2.246L25.424.293h2.187l7.509 19.354h-2.306l-2.246-5.883zm-.769-1.941l-3.312-8.648-3.31 8.648H29.8zM46 19.646h-9.698V.293h2.306V17.53h7.45L46 19.646zm6.327 0h-2.13L42.927.293h2.425l5.91 16.237L57.175.293h2.306l-7.153 19.354zm10.878 0h-2.246V.293h2.246v19.354zM68.586 4.06v15.587h-2.13V.293h2.13l10.82 15.647V.293h2.127v19.354h-1.95L68.586 4.06zm26.253 6.705l-2.485 2.763v6.118h-2.248V.293h2.248v10.294L101.458.293h2.721L96.374 9l7.805 10.589h-2.603l-6.737-8.824zm20.335 8.881h-9.694V.293h2.306V17.53h7.448v2.116h-.06zM116.595.293h10.347v2.06h-8.101v6.41h7.866v2.06h-7.866v6.707h8.101v2.059h-10.347V.293zm15.372 19.354h-2.245V.293h2.245v19.354zm5.321-15.587v15.587h-2.127V.293h2.127l10.82 15.647V.293h2.13v19.354h-1.953L137.288 4.06z" fill="#000"/></svg>