<svg width="274" height="20" fill="none" xmlns="http://www.w3.org/2000/svg"><path d="M82.341.427V19.52h.903V2.24l12.529 17.28h.85V.427h-.903v13.546L85.845.427h-3.504zm24.102 0h-3.238V19.52h3.238V.427zm113.877 0V19.52h.903V2.24l12.529 17.28h.849V.427h-.902v13.546L223.771.427h-3.451zM23.944 9.28v-8h1.592c2.76 0 3.982 1.76 3.982 4s-1.221 4-3.982 4h-1.592zm6.317 10.24h3.663l-5.468-9.653c2.548-.534 4.46-2.027 4.46-4.587 0-3.253-2.92-4.853-6.477-4.853h-5.734V19.52h3.239v-9.44h1.168l5.15 9.44zM261.464.427V19.52h11.785v-.8h-8.547V9.973h5.787V9.12h-5.787V1.227h8.547v-.8h-11.785zm-135.696 0V19.52h11.68v-.8h-8.441V9.973h5.786V9.12h-5.786V1.227h8.441v-.8h-11.68zm65.777 0v8.906h-7.804V.427h-3.238V19.52h3.238v-9.387h7.804v9.387h3.239V.427h-3.239zm-137.819 0l-5.203 14.026L43.055.427h-3.61V19.52h.903V2.24l6.477 16.8h.902l6.212-16.8v17.28h3.238V.427h-3.45zm106.815 9.549c0 5.493 3.451 9.973 8.282 9.973 2.92 0 4.937-1.653 5.946-3.253l-.69-.48c-1.009 1.387-2.654 2.933-4.99 2.933-3.929 0-5.044-4.96-5.044-9.12 0-4.16 1.115-9.12 5.044-9.12 2.336 0 3.981 1.494 4.99 2.934l.69-.48c-1.062-1.6-3.026-3.253-5.946-3.253-4.831-.107-8.282 4.373-8.282 9.866zm83.509-.002c0-4.16 1.114-9.12 5.096-9.12 2.336 0 4.035 1.493 4.991 2.933l.69-.48c-1.062-1.6-3.079-3.253-5.999-3.253-4.885 0-8.335 4.48-8.335 9.973S243.997 20 248.934 20c4.353 0 6.53-4.427 6.53-4.427V12h-5.84v.854h2.654v3.68c0 1.066-1.114 2.613-3.185 2.613-3.875-.054-5.043-5.013-5.043-9.173zM6.424 5.067l3.185 8.48H3.185l3.239-8.48zm5.521 14.453h3.45L7.964 0h-.53L0 19.52h.956l1.964-5.174h7.06l1.965 5.174zM68.538 5.067l3.185 8.48H65.3l3.239-8.48zm5.521 14.453h3.45L70.078 0h-.53l-7.433 19.52h.956l1.964-5.174h7.06l1.965 5.174zM206.464 5.067l3.185 8.48h-6.424l3.239-8.48zm5.468 14.453h3.451L207.95 0h-.478l-7.432 19.52h.955l1.965-5.174h7.061l1.911 5.174zM145.199.427h-3.769l6.529 10.026-6.105 9.067h1.062l5.574-8.267 5.415 8.267h3.77l-7.167-10.933 5.68-8.16h-1.062l-5.149 7.36-4.778-7.36z" fill="#000"/></svg>