<svg width="372" height="25" fill="none" xmlns="http://www.w3.org/2000/svg"><path d="M3.415 21.184h4.71c5.18 0 7.417-4.474 7.3-8.947-.118-4.21-2.238-8.421-7.3-8.421h-4.71v17.368zM8.125 0c7.3 0 10.596 6.053 10.714 12.237C18.957 18.553 15.542 25 8.124 25H0V0h8.124zm55.427 21.184h10.597V25H58.842v-2.237l6.476-10.79-6.005-10.13V0h14.6v3.553h-9.655l4.71 8.42-5.416 9.211zm55.307 0h10.597V25h-15.307v-2.237l6.476-10.79-6.005-10.13V0h14.6v3.553h-9.655l4.71 8.42-5.416 9.211zm54.247-7.5h6.947c6.005 0 6.005-10 0-10h-6.947v10zm0 3.684V25h-3.65V0h10.597c10.95 0 10.95 17.237 0 17.368h-6.947z" fill="#525252"/><path d="M247.811 2.763L239.216 17.5h-.589l-8.595-14.737V25h-1.766V0h2.001l8.596 14.605L247.34 0h2.12v25h-1.649V2.763zm44.121 20.527h16.367l-8.242-21.448-8.125 21.448zM310.654 25H289.46l9.655-25h1.766l9.773 25z" fill="#1A1919"/><mask id="mask0_1201_70" style="mask-type:alpha" maskUnits="userSpaceOnUse" x="350" y="0" width="22" height="25"><path d="M350.654 0h20.605v25h-20.605V0z" fill="#fff"/></mask><g mask="url(#mask0_1201_70)"><path d="M369.964 4.83c-2.002-2.052-4.827-3.14-7.418-3.14-6.829 0-10.244 5.194-10.244 10.87 0 5.798 3.415 10.628 10.244 10.628 2.473 0 5.063-.845 7.065-2.777v-6.764h-8.124v-1.69h9.772v9.058C368.904 23.55 365.961 25 362.546 25c-7.889 0-11.892-5.797-11.892-12.44 0-7.608 4.828-12.56 11.892-12.56 3.062 0 6.123 1.208 8.478 3.623l-1.06 1.208z" fill="#1A1919"/></g></svg>