<svg width="46" height="40" fill="none" xmlns="http://www.w3.org/2000/svg"><path d="M21.871 38.587h.001c.309.264.709.413 1.128.413.42 0 .82-.149 1.128-.412h0a527.095 527.095 0 015.25-4.414l-7.507 4.413zm0 0a530.127 530.127 0 00-5.236-4.403l-.004-.003h0m5.24 4.406l-5.24-4.406m0 0l-.008-.006c-4.657-3.88-8.582-7.153-11.298-10.356m11.306 10.362L5.325 23.819m0 0C2.324 20.279 1 17.019 1 13.512c0-3.46 1.213-6.617 3.377-8.911C6.564 2.282 9.566 1 12.85 1c2.436 0 4.656.748 6.625 2.236a13.604 13.604 0 012.721 2.78L23 7.101l.804-1.086a13.605 13.605 0 012.721-2.78h0C28.495 1.748 30.715 1 33.15 1c3.284 0 6.286 1.282 8.474 3.6C43.787 6.896 45 10.052 45 13.513c0 3.508-1.324 6.767-4.325 10.307h0c-2.716 3.203-6.64 6.476-11.297 10.355L5.325 23.819z" stroke="#000" stroke-width="2"/></svg>