<svg width="465" height="34" fill="none" xmlns="http://www.w3.org/2000/svg"><path d="M139.98.725v32.458h1.535V3.808l21.299 29.375h1.444V.725h-1.534v23.029L145.937.725h-5.957zm40.973 0h-5.505v32.458h5.505V.725zm193.591 0v32.458h1.534V3.808l21.299 29.375h1.444V.725h-1.534v23.029L380.41.725h-5.866zm-333.84 15.05v-13.6h2.707c4.694 0 6.77 2.993 6.77 6.8 0 3.809-2.076 6.8-6.77 6.8h-2.707zm10.74 17.408h6.227l-9.296-16.41c4.332-.907 7.581-3.445 7.581-7.797 0-5.53-4.963-8.25-11.01-8.25h-9.747v32.457h5.505V17.136h1.986l8.754 16.047zM444.487.725v32.458h20.036v-1.36h-14.53V16.954h9.837v-1.45h-9.837V2.085h14.53V.725h-20.036zm-230.682 0v32.458h19.856v-1.36h-14.35V16.954h9.837v-1.45h-9.837V2.085h14.35V.725h-19.856zm111.821 0v15.141h-13.267V.726h-5.505v32.457h5.505V17.226h13.267v15.957h5.505V.725h-5.505zm-234.292 0L82.49 24.57 73.194.725h-6.137v32.458h1.534V3.808l11.01 28.56h1.535l10.56-28.56v29.375H97.2V.725h-5.867zM272.92 16.96c0 9.338 5.866 16.954 14.079 16.954 4.964 0 8.393-2.81 10.108-5.53l-1.173-.816c-1.715 2.357-4.513 4.986-8.484 4.986-6.678 0-8.574-8.432-8.574-15.504 0-7.071 1.896-15.503 8.574-15.503 3.971 0 6.769 2.538 8.484 4.986l1.173-.816c-1.805-2.72-5.144-5.53-10.108-5.53C278.786.006 272.92 7.62 272.92 16.96zm141.964-.005c0-7.072 1.895-15.504 8.664-15.504 3.971 0 6.859 2.539 8.483 4.987l1.174-.816c-1.805-2.72-5.235-5.53-10.199-5.53-8.303 0-14.169 7.615-14.169 16.954 0 9.338 5.957 16.954 14.35 16.954 7.4 0 11.101-7.525 11.101-7.525V20.4h-9.928v1.45h4.513v6.257c0 1.813-1.896 4.442-5.415 4.442-6.589-.09-8.574-8.522-8.574-15.594zM10.92 8.613l5.415 14.416H5.415L10.92 8.613zm9.386 24.57h5.867L13.538 0h-.903L0 33.183h1.625l3.339-8.794h12.003l3.34 8.794zm96.208-24.57l5.415 14.416h-10.92l5.505-14.416zm9.386 24.57h5.866L119.131 0h-.902l-12.635 33.183h1.624l3.339-8.794h12.004l3.339 8.794zm225.088-24.57l5.415 14.416h-10.921l5.506-14.416zm9.296 24.57h5.866L353.515 0h-.813l-12.635 33.183h1.625l3.339-8.794h12.003l3.25 8.794zM246.838.725h-6.408l11.101 17.045-10.379 15.413h1.805l9.476-14.053 9.206 14.053h6.408l-12.184-18.586L265.52.725h-1.805l-8.755 12.512L246.838.725z" fill="#000"/></svg>