<svg width="273" height="20" fill="none" xmlns="http://www.w3.org/2000/svg"><path d="M82.266.427V19.52h.902V2.24l12.518 17.28h.848V.427h-.901v13.546L85.767.427h-3.5zm24.08 0h-3.235V19.52h3.235V.427zm113.773 0V19.52h.902V2.24l12.517 17.28h.849V.427h-.902v13.546L223.567.427h-3.448zM23.922 9.28v-8h1.59c2.759 0 3.979 1.76 3.979 4s-1.22 4-3.978 4h-1.591zm6.311 10.24h3.66L28.43 9.866c2.546-.533 4.456-2.026 4.456-4.586 0-3.253-2.918-4.853-6.471-4.853h-5.729V19.52h3.236v-9.44h1.167l5.145 9.44zM261.225.427V19.52H273v-.8h-8.54V9.973h5.782V9.12h-5.782V1.227H273v-.8h-11.775zm-135.572 0V19.52h11.669v-.8h-8.433V9.973h5.781V9.12h-5.781V1.227h8.433v-.8h-11.669zm65.717 0v8.906h-7.797V.427h-3.235V19.52h3.235v-9.387h7.797v9.387h3.236V.427h-3.236zm-137.693 0L48.48 14.453 43.016.427h-3.607V19.52h.902V2.24l6.47 16.8h.903l6.205-16.8v17.28h3.236V.427h-3.448zm106.718 9.549c0 5.494 3.447 9.973 8.274 9.973 2.917 0 4.933-1.653 5.941-3.253l-.69-.48c-1.008 1.387-2.652 2.934-4.986 2.934-3.925 0-5.039-4.96-5.039-9.12 0-4.16 1.114-9.12 5.039-9.12 2.334 0 3.978 1.493 4.986 2.933l.69-.48c-1.061-1.6-3.024-3.253-5.941-3.253-4.827-.107-8.274 4.373-8.274 9.866zm83.432-.002c0-4.16 1.114-9.12 5.092-9.12 2.334 0 4.031 1.493 4.986 2.933l.689-.48c-1.061-1.6-3.076-3.253-5.993-3.253-4.88 0-8.328 4.48-8.328 9.973S243.774 20 248.707 20c4.349 0 6.524-4.427 6.524-4.427V12h-5.835v.854h2.652v3.68c0 1.066-1.114 2.613-3.182 2.613-3.872-.054-5.039-5.013-5.039-9.173zM6.418 5.067l3.182 8.48H3.182l3.236-8.48zm5.516 14.453h3.448L7.956 0h-.53L0 19.52h.955l1.962-5.174h7.055l1.962 5.174zM68.475 5.067l3.183 8.48H65.24l3.235-8.48zm5.516 14.453h3.448L70.013 0h-.53l-7.426 19.52h.955l1.963-5.174h7.054l1.962 5.174zM206.275 5.067l3.183 8.48h-6.418l3.235-8.48zm5.463 14.453h3.448L207.76 0h-.477l-7.426 19.52h.955l1.962-5.174h7.055l1.909 5.174zM145.066.427H141.3l6.524 10.026-6.099 9.067h1.061l5.569-8.267 5.41 8.267h3.766L150.37 8.586l5.676-8.16h-1.061l-5.145 7.36-4.774-7.36z" fill="#000"/></svg>