<svg width="31" height="30" fill="none" xmlns="http://www.w3.org/2000/svg"><path d="M18.305 15L29.523 3.782c.308-.309.479-.72.479-1.16 0-.44-.17-.852-.48-1.16L28.54.479A1.631 1.631 0 0027.379 0c-.44 0-.851.17-1.16.48L15 11.695 3.784.48A1.626 1.626 0 002.624 0c-.44 0-.852.17-1.16.48l-.984.982c-.64.64-.64 1.68 0 2.32L11.698 15 .48 26.217c-.309.31-.479.722-.479 1.16 0 .44.17.852.479 1.161l.983.983c.309.31.721.479 1.16.479.44 0 .852-.17 1.16-.48l11.218-11.216L26.218 29.52c.31.31.722.479 1.16.479h.001c.44 0 .851-.17 1.16-.48l.983-.982a1.63 1.63 0 00.48-1.16c0-.44-.171-.851-.48-1.16L18.305 15z" fill="#525252"/></svg>