<svg width="69" height="8" fill="none" xmlns="http://www.w3.org/2000/svg"><path d="M50.607 6.784L37.202.254h-.93v7.548h.902V1.187l13.405 6.615h.93V.254h-.902v6.53zm3.239-6.53v.82h7.012v6.728h.902V1.074h7.04v-.82H53.846zM32.893 7.802h1.268L25.599 0l-8.56 7.802h1.266l2.282-2.007h9.997l2.31 2.007zM21.431 4.947L25.6 1.216l4.14 3.731h-8.308zM6.928 3.731v.82h7.547v1.612c-1.295.593-3.21 1.045-6.026 1.045-3.38 0-7.407-1.045-7.407-3.222S5.182.848 8.28.848c2.731 0 4.956.594 6.252 1.329l.507-.735C13.687.707 11.349.028 8.279.028 4.479.028 0 1.357 0 3.986 0 6.615 4.421 8 8.477 8c2.816 0 5.125-.452 6.984-1.357V3.731H6.928z" fill="#000"/></svg>