<svg width="50" height="8" fill="none" xmlns="http://www.w3.org/2000/svg"><path d="M30.847 0c-3.537 0-6.4 1.792-6.4 4s2.863 4 6.4 4c3.537 0 6.4-1.766 6.4-4s-2.863-4-6.4-4zm0 6.754c-1.968 0-3.563-1.284-3.563-2.863 0-1.58 1.6-2.867 3.569-2.867 1.968 0 3.563 1.283 3.563 2.867s-1.595 2.863-3.563 2.863h-.006zM12.168 3.378H5.936a.28.28 0 00-.278.287v.716a.288.288 0 00.278.296h3.66a.198.198 0 01.19.207.396.396 0 010 .096C9.37 6.167 8.088 7.138 6.342 7.138c-1.963 0-3.497-1.427-3.497-3.038 0-1.612 1.544-3.027 3.606-3.027A4.25 4.25 0 019.226 2.19a.51.51 0 00.34.149h2.622a.204.204 0 00.2-.207v-.085c0-.133-.144-.23-.231-.312A8.07 8.07 0 007.155 0H6.45C2.885.001 0 1.767 0 3.941s2.797 3.94 6.356 3.94c3.559 0 6.39-1.744 6.382-3.948a.565.565 0 00-.57-.555z" fill="#000"/><path d="M44.818 3.897a.384.384 0 01.173-.32l4.486-2.93a.209.209 0 00.02-.347.208.208 0 00-.126-.042h.078-3.398a1.012 1.012 0 00-.476.249l-1.947 2.166a.472.472 0 01-.357.177.483.483 0 01-.363-.177L40.955.486c-.127-.128-.477.032-.477.032h-3.274a.206.206 0 00-.216.196V.73a.205.205 0 00.098.182l4.295 2.818a.338.338 0 01.135.48.338.338 0 01-.135.125l-4.295 2.809a.191.191 0 00-.098.176.207.207 0 00.201.213h-.005 3.34a.712.712 0 00.468-.21l1.922-2.154a.474.474 0 01.357-.173.463.463 0 01.352.173l1.923 2.154c.124.126.291.2.468.21h3.34a.212.212 0 00.224-.204v-.016a.201.201 0 00-.102-.183L44.99 4.21a.385.385 0 01-.172-.315zM23.758.26h-8.985a.567.567 0 00-.57.571v6.384a.579.579 0 00.576.578h8.979a.284.284 0 00.285-.285V7.04a.287.287 0 00-.285-.286h-6.68a.285.285 0 01-.285-.286V4.702a.286.286 0 01.284-.286h5.645a.284.284 0 00.285-.285v-.468a.287.287 0 00-.285-.286h-5.645a.285.285 0 01-.285-.285V1.563a.282.282 0 01.29-.264h6.67a.272.272 0 00.29-.25v-.5a.285.285 0 00-.284-.29z" fill="#000"/></svg>