<svg width="112" height="8" fill="none" xmlns="http://www.w3.org/2000/svg"><path d="M33.747.17v7.637h.37V.896l5.135 6.911h.348V.171h-.37v5.418L35.183.17h-1.436zm9.878 0h-1.327v7.637h1.327V.171zm46.671 0v7.637h.37V.896l5.135 6.911h.348V.171h-.37v5.418L91.711.17h-1.415zM9.813 3.712v-3.2h.653c1.131 0 1.632.704 1.632 1.6 0 .896-.5 1.6-1.632 1.6h-.653zm2.59 4.095h1.5l-2.24-3.86c1.044-.214 1.827-.811 1.827-1.835C13.49.81 12.293.17 10.836.17h-2.35v7.636h1.327V4.031h.479l2.11 3.776zM107.159.17v7.637h4.83v-.32h-3.503V3.989h2.372v-.341h-2.372V.49h3.503V.17h-4.83zm-55.614 0v7.637h4.787v-.32h-3.46V3.989h2.372v-.341h-2.372V.49h3.46V.17h-4.787zm26.958 0v3.563h-3.198V.17h-1.328v7.636h1.328V4.053h3.198v3.754h1.328V.171h-1.328zM22.02.17l-2.133 5.61-2.24-5.61h-1.48v7.637h.37V.896l2.654 6.719h.37l2.546-6.72v6.912h1.327V.171h-1.415zm43.777 3.82c0 2.197 1.414 3.99 3.394 3.99a2.874 2.874 0 002.437-1.302l-.283-.192c-.413.555-1.088 1.173-2.045 1.173-1.61 0-2.067-1.984-2.067-3.647 0-1.664.457-3.648 2.067-3.648.957 0 1.632.597 2.045 1.173l.283-.192c-.435-.64-1.24-1.3-2.437-1.3-1.98-.043-3.394 1.748-3.394 3.945zm34.225 0c0-1.664.457-3.648 2.089-3.648.957 0 1.653.598 2.045 1.173l.283-.192a2.947 2.947 0 00-2.459-1.3c-2.002 0-3.416 1.791-3.416 3.988S100 8 102.024 8c1.784 0 2.676-1.77 2.676-1.77V4.8h-2.394v.342h1.088v1.471c0 .427-.457 1.046-1.305 1.046-1.589-.022-2.067-2.005-2.067-3.67zM2.633 2.026l1.305 3.392H1.305l1.328-3.392zm2.263 5.781H6.31L3.264 0h-.218L0 7.807h.392l.805-2.07H4.09l.805 2.07zM28.09 2.026l1.305 3.392h-2.633l1.328-3.392zm2.262 5.781h1.415L28.72 0h-.218l-3.046 7.807h.391l.806-2.07h2.893l.805 2.07zm54.266-5.781l1.305 3.392H83.29l1.328-3.392zm2.24 5.781h1.415L85.227 0h-.196l-3.046 7.807h.391l.806-2.07h2.893l.784 2.07zM59.508.17h-1.544l2.676 4.01-2.502 3.627h.435l2.285-3.306 2.219 3.306h1.545l-2.938-4.373L64.012.171h-.435l-2.11 2.943L59.508.171z" fill="#000"/></svg>