<svg width="117" height="8" fill="none" xmlns="http://www.w3.org/2000/svg"><path d="M1.093 6.779H2.6c1.658 0 2.374-1.432 2.336-2.863C4.898 2.568 4.22 1.22 2.6 1.22H1.093v5.558zM2.6 0c2.336 0 3.39 1.937 3.429 3.916C6.066 5.936 4.974 8 2.599 8H0V0h2.6zm17.337 6.779h3.39V8H18.43v-.716l2.073-3.452L18.58.589V0h4.672v1.137h-3.09l1.508 2.695-1.733 2.947zm17.298 0h3.391V8h-4.898v-.716L37.8 3.832 35.88.589V0h4.672v1.137h-3.09l1.507 2.695-1.733 2.947zm16.959-2.4h2.223c1.922 0 1.922-3.2 0-3.2h-2.223v3.2zm0 1.179V8h-1.168V0h3.39c3.505 0 3.505 5.516 0 5.558h-2.222z" fill="#525252"/><path d="M77.7.884L74.95 5.6h-.19L72.01.884V8h-.565V0h.64l2.751 4.674L77.55 0h.678v8H77.7V.884zm13.718 6.569h5.238L94.018.589l-2.6 6.864zM97.41 8h-6.782l3.09-8h.565l3.127 8z" fill="#1A1919"/><mask id="mask0_280_2023" style="mask-type:alpha" maskUnits="userSpaceOnUse" x="109" y="0" width="8" height="8"><path d="M109.809 0h6.594v8h-6.594V0z" fill="#fff"/></mask><g mask="url(#mask0_280_2023)"><path d="M115.988 1.546A3.387 3.387 0 00113.615.54c-2.186 0-3.278 1.662-3.278 3.478 0 1.855 1.092 3.401 3.278 3.401.791 0 1.62-.27 2.26-.889V4.367h-2.6v-.54h3.128v2.898c-.754.811-1.696 1.275-2.788 1.275-2.525 0-3.806-1.855-3.806-3.98 0-2.435 1.545-4.02 3.806-4.02.979 0 1.959.386 2.712 1.16l-.339.386z" fill="#1A1919"/></g></svg>