<svg width="61" height="8" fill="none" xmlns="http://www.w3.org/2000/svg"><path d="M.946 4c0 1.811 1.301 3.153 3.003 3.153 1.585 0 2.39-.988 2.625-1.459h.9C7.237 6.447 6.173 8 3.95 8 1.703 8 0 6.305 0 4c0-2.284 1.726-4 3.95-4 2.223 0 3.31 1.53 3.547 2.306h-.923a2.936 2.936 0 00-1.106-1.101A2.955 2.955 0 003.951.823C2.248.823.947 2.165.947 4H.946zm11.281 1.506H8.964l-.9 2.33h-.898L10.17.116h.875l3.004 7.742h-.922l-.899-2.353zm-.307-.777l-1.325-3.46L9.27 4.73h2.649zm6.48 3.13h-3.88V.117h.923v6.895h2.98l-.023.847zm2.53 0h-.851L17.17.117h.97l2.364 6.495L22.87.117h.923L20.93 7.86zm4.352 0h-.898V.117h.898V7.86zm2.152-6.235v6.235h-.852V.117h.852l4.328 6.26V.116h.851V7.86h-.78l-4.399-6.235zm10.501 2.682l-.994 1.105V7.86h-.899V.117h.9v4.118l3.64-4.118h1.089L38.55 3.6l3.122 4.235H40.63l-2.696-3.53zm8.135 3.553h-3.878V.117h.922v6.895h2.98v.847h-.024zm.568-7.742h4.139v.824h-3.24v2.565h3.146v.823h-3.147v2.683h3.24v.823h-4.138V.117zm6.149 7.742h-.898V.117h.898V7.86zm2.128-6.235v6.235h-.85V.117h.85l4.328 6.26V.116h.852V7.86h-.781l-4.399-6.235z" fill="#000"/></svg>